<?xml version="1.0" standalone="no"?><!DOCTYPE svg PUBLIC "-//W3C//DTD SVG 1.1//EN" "http://www.w3.org/Graphics/SVG/1.1/DTD/svg11.dtd"><svg t="1577442738608" class="icon" viewBox="0 0 1024 1024" version="1.1" xmlns="http://www.w3.org/2000/svg" p-id="81145" xmlns:xlink="http://www.w3.org/1999/xlink" width="200" height="200"><defs><style type="text/css"></style></defs><path d="M862.569 316.604v-48.949c0-6.362-5.103-11.521-11.415-11.521-6.304 0-11.399 5.152-11.399 11.521v48.949h-71.708v-48.949c0-6.362-5.095-11.521-11.415-11.521-6.304 0-11.399 5.152-11.399 11.521v48.949h-17.36v76.393c0 11.482 9.258 20.868 20.599 20.868h36.495v367.774c0 33.347-27.034 60.388-60.381 60.388s-60.388-27.041-60.388-60.388h-0.016v-190.508c0-54.289-44.018-98.3-98.3-98.3h-20.999v-250.652c0-53.57-44.91-98.127-98.471-98.127h-204.105c-53.57 0-98.291 44.73-98.291 98.3v637.591h400.86v-349.202h20.999c33.347 0 60.388 27.041 60.388 60.388v190.506h0.016c0 54.289 44.018 98.3 98.3 98.3s98.316-44.011 98.316-98.3v-367.773h36.495c11.343 0 20.599-9.388 20.599-20.868v-76.393h-17.415zM306.004 789.161l36.705-119.18h-78.432l127.502-157.982-36.705 119.18h78.432l-127.502 157.982zM454.227 381.164c0 17.99-14.719 32.71-32.71 32.71h-150.16c-17.99 0-32.71-14.719-32.71-32.71v-106.1c0-17.99 14.719-32.71 32.71-32.71h150.167c17.99 0 32.71 14.719 32.701 32.71v106.1z" fill="#444444" p-id="81146"></path></svg>