<?xml version="1.0" standalone="no"?><!DOCTYPE svg PUBLIC "-//W3C//DTD SVG 1.1//EN" "http://www.w3.org/Graphics/SVG/1.1/DTD/svg11.dtd"><svg t="1583997791941" class="icon" viewBox="0 0 1024 1024" version="1.1" xmlns="http://www.w3.org/2000/svg" p-id="9645" xmlns:xlink="http://www.w3.org/1999/xlink" width="200" height="200"><defs><style type="text/css"></style></defs><path d="M984.1152 427.776 529.2032 87.424c-3.968-2.9184-8.6528-4.4544-13.5936-4.4544-4.9152 0-9.6 1.536-13.5936 4.4544L39.936 427.7248c-10.2656 7.5008-12.544 21.9904-5.0688 32.2816 4.3008 5.9648 11.2896 9.5488 18.6368 9.5488 4.8896 0 9.5744-1.536 13.568-4.4288l19.9424-14.592 0 464.9728c0 12.7488 10.3424 23.1424 23.04 23.1424l279.936 0c12.6976 0 23.04-10.368 23.04-23.1424L413.0304 657.1264l212.4032 0 0 258.3808c0 12.7488 10.3424 23.1424 23.04 23.1424L913.92 938.6496c12.6976 0 23.04-10.368 23.04-23.1424L936.96 450.5344l19.9424 14.592c3.968 2.8928 8.6528 4.4288 13.5424 4.4288 7.3728 0 14.3616-3.5584 18.6624-9.5488C996.608 449.7152 994.3296 435.2256 984.1152 427.776zM890.9056 892.3648l-219.392 0L671.5136 634.0096c0-12.7488-10.3424-23.1424-23.04-23.1424L389.9904 610.8672c-12.6976 0-23.04 10.368-23.04 23.1424l0 258.3808L133.12 892.3904 133.12 416.8704 515.584 141.44l375.3216 275.3792L890.9056 892.3648 890.9056 892.3648z" p-id="9646"></path></svg>