<?xml version="1.0" standalone="no"?><!DOCTYPE svg PUBLIC "-//W3C//DTD SVG 1.1//EN" "http://www.w3.org/Graphics/SVG/1.1/DTD/svg11.dtd"><svg t="1577172549189" class="icon" viewBox="0 0 1024 1024" version="1.1" xmlns="http://www.w3.org/2000/svg" p-id="43699" xmlns:xlink="http://www.w3.org/1999/xlink" width="200" height="200"><defs><style type="text/css"></style></defs><path d="M409.6 455.68c0 56.55552 45.84448 102.4 102.4 102.4s102.4-45.84448 102.4-102.4c0-34.89792-33.8944-98.57536-102.4-185.84576C443.4944 357.10464 409.6 420.78208 409.6 455.68z m102.4 143.36c-79.17568 0-143.36-64.18432-143.36-143.36 0-52.7872 47.78496-136.41216 143.36-250.88 95.57504 114.46784 143.36 198.0928 143.36 250.88 0 79.17568-64.18432 143.36-143.36 143.36zM440.32 716.8c-24.38144 0-51.51744-8.71936-81.69984-25.66144l-0.73216-0.43008C336.04608 677.23264 315.78112 670.72 296.96 670.72s-39.08608 6.51264-60.928 19.98848a20.48 20.48 0 1 1-21.504-34.85696C242.47296 638.60736 269.99808 629.76 296.96 629.76c26.83904 0 54.24128 8.76544 82.05824 25.856C403.42528 669.27104 423.95648 675.84 440.32 675.84c16.44544 0 37.0944-6.64064 61.66016-20.41856l0.91136-0.4864c33.536-16.64 60.07296-25.17504 80.78848-25.17504 20.71552 0 47.2576 8.52992 81.01888 25.2928 27.3408 14.01344 48.41984 20.7872 62.34112 20.7872 13.9264 0 35.00032-6.77376 62.34112-20.7872a20.48 20.48 0 1 1 18.67776 36.4544C775.45984 708.21376 748.7488 716.8 727.04 716.8s-48.41984-8.58624-80.78848-25.17504C617.90208 677.54496 596.65408 670.72 583.68 670.72c-12.9024 0-33.9968 6.7584-62.12096 20.6848C491.55584 708.16256 464.57344 716.8 440.32 716.8zM440.32 814.08c-24.38144 0-51.51744-8.71936-81.69984-25.66144l-0.73216-0.43008C336.04608 774.51264 315.78112 768 296.96 768s-39.08608 6.51264-60.928 19.98848a20.48 20.48 0 1 1-21.504-34.85696C242.47296 735.88736 269.99808 727.04 296.96 727.04c26.83904 0 54.24128 8.76544 82.05824 25.856C403.42528 766.55104 423.95648 773.12 440.32 773.12c16.44544 0 37.0944-6.64064 61.66016-20.41856l0.91136-0.4864c33.536-16.64 60.07296-25.17504 80.78848-25.17504 20.71552 0 47.2576 8.52992 81.01888 25.2928 27.3408 14.01344 48.41984 20.7872 62.34112 20.7872 13.9264 0 35.00032-6.77376 62.34112-20.7872a20.48 20.48 0 1 1 18.67776 36.4544C775.45984 805.49376 748.7488 814.08 727.04 814.08s-48.41984-8.58624-80.78848-25.17504C617.90208 774.82496 596.65408 768 583.68 768c-12.9024 0-33.9968 6.7584-62.12096 20.6848C491.55584 805.44256 464.57344 814.08 440.32 814.08z" fill="#000000" p-id="43700"></path><path d="M583.68 834.56m-40.96 0a40.96 40.96 0 1 0 81.92 0 40.96 40.96 0 1 0-81.92 0Z" fill="#000000" p-id="43701"></path><path d="M76.8 901.12m30.72 0l808.96 0q30.72 0 30.72 30.72l0 0q0 30.72-30.72 30.72l-808.96 0q-30.72 0-30.72-30.72l0 0q0-30.72 30.72-30.72Z" fill="#000000" p-id="43702"></path><path d="M844.8 911.36H179.2V445.44c0-183.80288 148.99712-332.8 332.8-332.8s332.8 148.99712 332.8 332.8v465.92z m51.2 51.2V445.44c0-212.07552-171.92448-384-384-384S128 233.36448 128 445.44v517.12h768z" fill="#000000" p-id="43703"></path></svg>