<?xml version="1.0" standalone="no"?><!DOCTYPE svg PUBLIC "-//W3C//DTD SVG 1.1//EN" "http://www.w3.org/Graphics/SVG/1.1/DTD/svg11.dtd"><svg t="1577172928907" class="icon" viewBox="0 0 1024 1024" version="1.1" xmlns="http://www.w3.org/2000/svg" p-id="57783" xmlns:xlink="http://www.w3.org/1999/xlink" width="200" height="200"><defs><style type="text/css"></style></defs><path d="M652.990449 755.650952l-4.870346 50.431445c110.475585 14.55344 198.20582 44.991505 198.205819 80.293517 0 49.445856-171.550113 89.445416-337.148291 89.445416-165.566179 0-337.116292-39.99956-337.116292-89.445416 0-34.918016 85.695057-65.048884 194.353062-79.807122l-4.838346-50.495445C179.370059 774.434745 48.005104 825.77498 48.005104 886.343914 48.005104 962.368678 254.511632 1024 509.23523 1024c254.736398 0 461.242926-61.624922 461.242927-137.649686 0-60.991329-133.220935-112.69636-317.494108-130.705762z m-168.906942 139.761662h61.496924v-234.813417h-61.503324v234.813417z m0-536.704496V274.843441h61.496924v83.864677h-61.503324zM860.796163 410.176352c30.457265 129.368177 17.523007 252.835619-27.462098 262.659511-58.264959 12.595061-70.757622-91.454994-233.360633-102.891668-23.66694-1.683181-42.277935 10.598283-38.041181 30.489264 3.116766 14.649439-93.259774 48.21707-98.987711 24.338933-4.812747-19.916581-30.540464-6.630327-47.020283-39.564365 0 0-20.377376 2.835169-25.990114 4.038355-32.511642 6.982323-68.722444-29.650874-76.210362-61.368925-7.468718-31.78845 8.863902-79.691923 41.381945-86.744645 375.951065-80.86951 286.601647-240.496555 363.170405-257.021173 45.036305-9.676694 112.088367 96.555738 142.520032 226.064713z m-52.415423 191.991488c10.02869-2.175976 26.770906-76.824755 3.084766-177.457248-23.61574-100.606893-74.367182-171.230116-84.383072-169.124539-9.95829 2.188776-30.130869 86.757446-6.444729 187.383538 23.60294 100.683692 77.727145 161.303826 87.743035 159.198249z m-565.964975-433.019237C252.508454 76.663221 289.999242-2.785505 322.082089 0.088063c54.553 4.947146 6.143932 123.358643 273.987386 147.454378 23.167745 2.124777 38.591575 33.983626 36.114803 56.684177-2.495973 22.655751-24.51173 51.167437-47.666676 49.08746-3.999956-0.351996-18.386998-0.582394-18.386997-0.582394-37.324389 0-112.76676 1.900779-129.048181 5.087944C325.186055 279.611388 325.378053 352.909782 283.868109 349.127424c-32.063647-2.982367-51.557833-87.583037-41.445944-179.978821z m52.74822 128.798584c7.129522 0.607993 39.532365-46.079493 47.33388-117.982703C350.369778 108.106075 329.154011 51.121102 322.062889 50.449109c-7.135922-0.601593-36.3452 52.73542-44.159514 124.58743-7.871913 71.871209 10.111889 122.257855 17.26701 122.910648z" p-id="57784"></path></svg>